<svg width="30" height="30" viewBox="0 0 30 30" fill="none" xmlns="http://www.w3.org/2000/svg">
<path d="M27.5 15C27.5 18.3152 26.183 21.4946 23.8388 23.8388C21.4946 26.183 18.3152 27.5 15 27.5C13.3585 27.5 11.733 27.1767 10.2165 26.5485C8.69989 25.9203 7.3219 24.9996 6.16117 23.8388C5.00043 22.6781 4.07969 21.3001 3.45151 19.7835C2.82332 18.267 2.5 16.6415 2.5 15C2.5 11.6848 3.81696 8.50537 6.16117 6.16116C8.50537 3.81696 11.6848 2.5 15 2.5C16.6415 2.5 18.267 2.82332 19.7835 3.4515C21.3001 4.07969 22.6781 5.00043 23.8388 6.16116C26.183 8.50537 27.5 11.6848 27.5 15ZM7.5 16.25L17.5 16.25L13.125 20.625L14.9 22.4L22.3 15L14.9 7.6L13.125 9.375L17.5 13.75L7.5 13.75L7.5 16.25Z" fill="url(#paint0_linear_116_581)"/>
<defs>
<linearGradient id="paint0_linear_116_581" x1="7.47396" y1="25.022" x2="30.9738" y2="22.7548" gradientUnits="userSpaceOnUse">
<stop stop-color="#751AE5"/>
<stop offset="0.489848" stop-color="#9E6BF5"/>
<stop offset="1" stop-color="#0D37FC"/>
</linearGradient>
</defs>
</svg>
