<svg width="173" height="85" viewBox="0 0 173 85" fill="none" xmlns="http://www.w3.org/2000/svg">
<path d="M93.4969 21.9828V5.56897H104.096V8.47656H96.5961V11.9703H102.416V14.8779H96.5961V19.0752H104.332V21.9828H93.4969ZM106.378 21.9828V10.2586H108.886L109.075 11.9703L108.649 11.4545C109.099 11.1028 109.635 10.7862 110.258 10.5048C110.889 10.2156 111.622 10.071 112.458 10.071C113.089 10.071 113.645 10.1648 114.126 10.3524C114.615 10.5322 115.033 10.794 115.38 11.1379C115.727 11.474 116.007 11.8766 116.22 12.3455L115.51 12.1814C115.889 11.5092 116.441 10.9894 117.166 10.6221C117.9 10.2547 118.728 10.071 119.65 10.071C120.739 10.071 121.626 10.2938 122.312 10.7393C122.998 11.1848 123.503 11.814 123.826 12.6269C124.149 13.432 124.311 14.3777 124.311 15.4641V21.9828H121.377V15.6752C121.377 14.5809 121.204 13.772 120.857 13.2483C120.518 12.7246 119.95 12.4628 119.154 12.4628C118.759 12.4628 118.412 12.5331 118.113 12.6738C117.821 12.8067 117.576 13.006 117.379 13.2717C117.19 13.5297 117.048 13.8462 116.953 14.2214C116.859 14.5887 116.811 15.0029 116.811 15.4641V21.9828H113.878V15.6752C113.878 14.9483 113.799 14.3464 113.641 13.8697C113.491 13.3929 113.247 13.0412 112.908 12.8145C112.577 12.58 112.143 12.4628 111.607 12.4628C110.921 12.4628 110.357 12.623 109.915 12.9435C109.481 13.2561 109.099 13.6821 108.768 14.2214L109.312 12.6503V21.9828H106.378ZM132.311 22.2172C131.025 22.2172 129.929 21.9398 129.022 21.3848C128.115 20.8298 127.421 20.0912 126.94 19.169C126.467 18.2467 126.231 17.2384 126.231 16.1441C126.231 15.0421 126.467 14.026 126.94 13.0959C127.421 12.1657 128.115 11.4232 129.022 10.8683C129.929 10.3055 131.025 10.0241 132.311 10.0241C133.596 10.0241 134.692 10.3055 135.599 10.8683C136.506 11.4232 137.196 12.1657 137.669 13.0959C138.15 14.026 138.391 15.0421 138.391 16.1441C138.391 17.2384 138.15 18.2467 137.669 19.169C137.196 20.0912 136.506 20.8298 135.599 21.3848C134.692 21.9398 133.596 22.2172 132.311 22.2172ZM132.311 19.8255C133.297 19.8255 134.054 19.4855 134.582 18.8055C135.118 18.1178 135.386 17.2305 135.386 16.1441C135.386 15.0421 135.118 14.1471 134.582 13.4593C134.054 12.7637 133.297 12.4159 132.311 12.4159C131.333 12.4159 130.576 12.7637 130.04 13.4593C129.503 14.1471 129.235 15.0421 129.235 16.1441C129.235 17.2305 129.503 18.1178 130.04 18.8055C130.576 19.4855 131.333 19.8255 132.311 19.8255ZM139.274 27.6572L139.013 25.2655C139.384 25.2655 139.672 25.2069 139.877 25.0897C140.082 24.9802 140.224 24.7888 140.303 24.5152C140.39 24.2416 140.433 23.8664 140.433 23.3897V10.2586H143.367V24.5855C143.367 25.4062 143.244 26.0354 143 26.4731C142.755 26.9186 142.397 27.2274 141.923 27.3993C141.45 27.5712 140.874 27.6572 140.196 27.6572H139.274ZM140.433 8.47656V5.56897H143.367V8.47656H140.433ZM146.116 21.9828V10.2586H149.051V21.9828H146.116ZM146.116 8.47656V5.56897H149.051V8.47656H146.116ZM93.4969 49.8276V33.4138H99.3878C100.657 33.4138 101.73 33.6014 102.605 33.9766C103.481 34.3517 104.143 34.9302 104.593 35.7117C105.05 36.4933 105.279 37.4938 105.279 38.7131C105.279 39.9481 105.054 40.9681 104.604 41.7731C104.155 42.5704 103.496 43.1643 102.629 43.5552C101.761 43.9381 100.705 44.1297 99.4587 44.1297H96.5251V49.8276H93.4969ZM96.5251 41.6207H99.1039C100.137 41.6207 100.91 41.3902 101.422 40.929C101.943 40.4678 102.203 39.7448 102.203 38.76C102.203 37.7752 101.939 37.056 101.411 36.6028C100.89 36.1495 100.098 35.9228 99.0329 35.9228H96.5251V41.6207ZM109.395 50.0621C108.765 50.0621 108.189 49.9253 107.668 49.6517C107.148 49.3704 106.734 48.9678 106.426 48.4441C106.119 47.9205 105.965 47.2874 105.965 46.5448C105.965 45.8805 106.119 45.3138 106.426 44.8448C106.742 44.3681 107.152 43.9733 107.656 43.6607C108.169 43.3402 108.721 43.0902 109.312 42.9104C109.912 42.7228 110.499 42.586 111.075 42.5C111.659 42.414 112.171 42.3633 112.613 42.3476C112.581 41.6754 112.408 41.1869 112.092 40.8821C111.777 40.5772 111.241 40.4248 110.484 40.4248C109.955 40.4248 109.439 40.4991 108.934 40.6476C108.437 40.7883 107.873 41.011 107.242 41.3159L106.982 38.9476C107.692 38.6036 108.402 38.3457 109.111 38.1738C109.829 38.0019 110.555 37.9159 111.288 37.9159C112.171 37.9159 112.932 38.0722 113.571 38.3848C114.21 38.6974 114.703 39.2016 115.05 39.8972C115.397 40.585 115.57 41.4957 115.57 42.629V45.7945C115.57 46.3807 115.598 46.8067 115.653 47.0724C115.708 47.3303 115.811 47.4945 115.96 47.5648C116.11 47.6352 116.327 47.6704 116.611 47.6704H116.99L116.729 50.0621H115.665C115.223 50.0621 114.829 50.0035 114.482 49.8862C114.143 49.7767 113.851 49.6205 113.606 49.4173C113.362 49.214 113.165 48.9757 113.015 48.7021C112.629 49.1319 112.104 49.4681 111.442 49.7104C110.787 49.9448 110.105 50.0621 109.395 50.0621ZM110.626 47.8345C110.886 47.8345 111.209 47.7681 111.595 47.6352C111.982 47.4945 112.329 47.2795 112.636 46.9903V44.3172C112.084 44.3407 111.533 44.4305 110.98 44.5869C110.428 44.7433 109.967 44.9738 109.596 45.2786C109.226 45.5835 109.04 45.9664 109.04 46.4276C109.04 46.9043 109.167 47.26 109.419 47.4945C109.671 47.7212 110.074 47.8345 110.626 47.8345ZM122.295 50.0621C121.553 50.0621 120.95 49.9136 120.485 49.6166C120.019 49.3117 119.676 48.9248 119.456 48.4559C119.235 47.9869 119.124 47.4984 119.124 46.9903V40.4952H117.445L117.705 38.1035H119.124V35.5241L122.058 35.2193V38.1035H124.66V40.4952H122.058V45.7945C122.058 46.3885 122.093 46.8184 122.164 47.0841C122.235 47.3421 122.397 47.5062 122.649 47.5766C122.902 47.6391 123.304 47.6704 123.856 47.6704H124.66L124.4 50.0621H122.295ZM130.427 50.0621C129.686 50.0621 129.082 49.9136 128.617 49.6166C128.152 49.3117 127.809 48.9248 127.588 48.4559C127.367 47.9869 127.257 47.4984 127.257 46.9903V40.4952H125.577L125.837 38.1035H127.257V35.5241L130.19 35.2193V38.1035H132.793V40.4952H130.19V45.7945C130.19 46.3885 130.226 46.8184 130.297 47.0841C130.368 47.3421 130.53 47.5062 130.782 47.5766C131.034 47.6391 131.436 47.6704 131.989 47.6704H132.793L132.533 50.0621H130.427ZM140.405 50.0621C138.977 50.0621 137.787 49.7807 136.833 49.2179C135.886 48.6474 135.176 47.8971 134.703 46.9669C134.23 46.029 133.994 45.005 133.994 43.8952C133.994 42.8243 134.214 41.8357 134.656 40.929C135.105 40.0223 135.76 39.2954 136.62 38.7483C137.479 38.1933 138.528 37.9159 139.766 37.9159C140.902 37.9159 141.848 38.1464 142.605 38.6076C143.362 39.0688 143.93 39.6862 144.308 40.46C144.687 41.226 144.876 42.074 144.876 43.0041C144.876 43.2621 144.86 43.524 144.829 43.7897C144.797 44.0476 144.75 44.3172 144.687 44.5986H137.045C137.156 45.3255 137.384 45.9157 137.732 46.369C138.086 46.8145 138.516 47.1428 139.021 47.3538C139.533 47.5648 140.081 47.6704 140.665 47.6704C141.351 47.6704 141.99 47.5843 142.581 47.4124C143.173 47.2326 143.717 46.9981 144.214 46.709L144.356 49.171C143.906 49.4055 143.346 49.6126 142.676 49.7924C142.006 49.9722 141.249 50.0621 140.405 50.0621ZM137.116 42.629H141.895C141.895 42.2772 141.828 41.9255 141.694 41.5738C141.56 41.2143 141.335 40.9133 141.02 40.671C140.712 40.4288 140.294 40.3076 139.766 40.3076C139.009 40.3076 138.414 40.5264 137.98 40.9641C137.546 41.4019 137.258 41.9567 137.116 42.629ZM146.879 49.8276V38.1035H149.623L149.694 39.3462C149.994 39.0179 150.415 38.6897 150.96 38.3614C151.504 38.0331 152.1 37.869 152.746 37.869C152.935 37.869 153.109 37.8847 153.266 37.9159L153.053 40.7766C152.88 40.7297 152.707 40.6984 152.533 40.6828C152.367 40.6671 152.202 40.6593 152.036 40.6593C151.539 40.6593 151.087 40.7726 150.676 40.9993C150.266 41.226 149.978 41.5035 149.812 41.8317V49.8276H146.879ZM154.689 49.8276V38.1035H157.433L157.551 40.2841L156.865 39.3931C157.315 39.0179 157.85 38.6779 158.474 38.3731C159.096 38.0683 159.822 37.9159 160.65 37.9159C162.165 37.9159 163.288 38.416 164.022 39.4166C164.755 40.4092 165.122 41.6988 165.122 43.2855V49.8276H162.188V43.52C162.188 42.4257 162.002 41.6167 161.632 41.0931C161.269 40.5695 160.674 40.3076 159.846 40.3076C159.175 40.3076 158.628 40.4717 158.202 40.8C157.776 41.1205 157.4 41.5504 157.078 42.0897L157.622 40.6593V49.8276H154.689ZM93.4969 77.6724V61.2586H99.3878C100.657 61.2586 101.73 61.4462 102.605 61.8214C103.481 62.1966 104.143 62.775 104.593 63.5566C105.05 64.3381 105.279 65.3386 105.279 66.5579C105.279 67.7929 105.054 68.8129 104.604 69.6179C104.155 70.4152 103.496 71.0092 102.629 71.4C101.761 71.783 100.705 71.9745 99.4587 71.9745H96.5251V77.6724H93.4969ZM96.5251 69.4655H99.1039C100.137 69.4655 100.91 69.235 101.422 68.7738C101.943 68.3126 102.203 67.5897 102.203 66.6048C102.203 65.62 101.939 64.9009 101.411 64.4476C100.89 63.9943 100.098 63.7676 99.0329 63.7676H96.5251V69.4655ZM106.956 77.6724V65.9483H109.7L109.771 67.191C110.071 66.8628 110.493 66.5345 111.037 66.2062C111.581 65.8779 112.176 65.7138 112.823 65.7138C113.012 65.7138 113.186 65.7295 113.344 65.7607L113.131 68.6214C112.957 68.5745 112.784 68.5433 112.61 68.5276C112.445 68.5119 112.279 68.5041 112.113 68.5041C111.617 68.5041 111.163 68.6174 110.753 68.8441C110.343 69.0709 110.055 69.3483 109.889 69.6766V77.6724H106.956ZM119.927 77.9069C118.642 77.9069 117.546 77.6295 116.639 77.0745C115.732 76.5195 115.038 75.7809 114.557 74.8586C114.084 73.9364 113.847 72.9281 113.847 71.8338C113.847 70.7317 114.084 69.7157 114.557 68.7855C115.038 67.8554 115.732 67.1129 116.639 66.5579C117.546 65.9952 118.642 65.7138 119.927 65.7138C121.213 65.7138 122.309 65.9952 123.216 66.5579C124.123 67.1129 124.813 67.8554 125.286 68.7855C125.767 69.7157 126.007 70.7317 126.007 71.8338C126.007 72.9281 125.767 73.9364 125.286 74.8586C124.813 75.7809 124.123 76.5195 123.216 77.0745C122.309 77.6295 121.213 77.9069 119.927 77.9069ZM119.927 75.5152C120.913 75.5152 121.67 75.1752 122.198 74.4952C122.735 73.8074 123.003 72.9202 123.003 71.8338C123.003 70.7317 122.735 69.8367 122.198 69.149C121.67 68.4533 120.913 68.1055 119.927 68.1055C118.949 68.1055 118.192 68.4533 117.656 69.149C117.12 69.8367 116.852 70.7317 116.852 71.8338C116.852 72.9202 117.12 73.8074 117.656 74.4952C118.192 75.1752 118.949 75.5152 119.927 75.5152ZM132.828 77.9069C131.63 77.9069 130.62 77.6295 129.8 77.0745C128.988 76.5195 128.373 75.7809 127.955 74.8586C127.545 73.9364 127.34 72.9281 127.34 71.8338C127.34 70.7395 127.545 69.7312 127.955 68.809C128.373 67.8867 128.988 67.1481 129.8 66.5931C130.62 66.0381 131.63 65.7607 132.828 65.7607C133.696 65.7607 134.429 65.9053 135.029 66.1945C135.628 66.4759 136.156 66.8393 136.614 67.2848L135.904 67.8945V60.0862H138.838V77.6724H136.07L135.928 75.6793L136.779 76.289C136.227 76.7892 135.656 77.184 135.064 77.4731C134.473 77.7623 133.727 77.9069 132.828 77.9069ZM133.254 75.5152C133.901 75.5152 134.429 75.3588 134.839 75.0462C135.249 74.7336 135.553 74.3036 135.75 73.7566C135.947 73.2016 136.046 72.5607 136.046 71.8338C136.046 71.1069 135.947 70.4698 135.75 69.9228C135.553 69.3678 135.249 68.934 134.839 68.6214C134.429 68.3088 133.901 68.1524 133.254 68.1524C132.639 68.1524 132.115 68.3088 131.681 68.6214C131.247 68.934 130.916 69.3678 130.687 69.9228C130.459 70.4698 130.344 71.1069 130.344 71.8338C130.344 72.5607 130.459 73.2016 130.687 73.7566C130.916 74.3036 131.247 74.7336 131.681 75.0462C132.115 75.3588 132.639 75.5152 133.254 75.5152ZM141.565 77.6724V65.9483H144.499V77.6724H141.565ZM141.565 64.1662V61.2586H144.499V64.1662H141.565ZM151.932 83.5814C150.829 83.5814 149.862 83.4446 149.034 83.171C148.215 82.9053 147.576 82.5223 147.118 82.0221C146.669 81.5219 146.444 80.924 146.444 80.2283C146.444 79.6421 146.606 79.1184 146.929 78.6572C147.26 78.204 147.737 77.8053 148.36 77.4614C148.045 77.2738 147.793 77.0393 147.603 76.7579C147.414 76.4766 147.32 76.1561 147.32 75.7966C147.32 75.4214 147.426 75.0971 147.639 74.8235C147.86 74.5421 148.147 74.3193 148.502 74.1552C147.903 73.7331 147.45 73.1938 147.142 72.5372C146.835 71.8729 146.681 71.1538 146.681 70.38C146.681 69.5359 146.866 68.7621 147.237 68.0586C147.607 67.3474 148.147 66.7807 148.857 66.3586C149.576 65.9288 150.451 65.7138 151.483 65.7138C152.02 65.7138 152.512 65.7802 152.962 65.9131C153.42 66.046 153.825 66.2297 154.18 66.4641C154.417 66.3312 154.76 66.214 155.209 66.1124C155.659 66.0029 156.16 65.9483 156.711 65.9483C156.846 65.9483 156.972 65.9483 157.09 65.9483C157.217 65.9483 157.343 65.9483 157.468 65.9483L157.279 67.7772C157.106 67.7772 156.929 67.7772 156.747 67.7772C156.574 67.7772 156.396 67.7772 156.215 67.7772C156.144 67.7772 156.049 67.7772 155.931 67.7772C155.812 67.7772 155.687 67.785 155.552 67.8007C155.789 68.1602 155.966 68.5628 156.084 69.0083C156.203 69.4538 156.262 69.911 156.262 70.38C156.262 71.2241 156.077 72.0019 155.706 72.7131C155.344 73.4166 154.807 73.9833 154.097 74.4131C153.387 74.8352 152.517 75.0462 151.483 75.0462C151.263 75.0462 151.05 75.0305 150.844 74.9993C150.64 74.9681 150.435 74.929 150.229 74.8821C150.056 74.9524 149.969 75.0774 149.969 75.2572C149.969 75.4683 150.099 75.6285 150.359 75.7379C150.619 75.8474 151.026 75.945 151.578 76.031L153.612 76.289C154.882 76.4531 155.876 76.8088 156.593 77.3559C157.319 77.9029 157.681 78.6807 157.681 79.689C157.681 80.4705 157.454 81.1505 156.995 81.729C156.546 82.3152 155.892 82.7685 155.032 83.089C154.173 83.4172 153.139 83.5814 151.932 83.5814ZM152.051 81.3773C153.044 81.3773 153.798 81.2561 154.31 81.0138C154.823 80.7715 155.079 80.4002 155.079 79.9C155.079 79.4545 154.899 79.1262 154.535 78.9152C154.18 78.7041 153.612 78.54 152.831 78.4228L150.241 78.0476C149.855 78.1961 149.531 78.3993 149.271 78.6572C149.011 78.923 148.881 79.2669 148.881 79.689C148.881 80.2595 149.161 80.6816 149.72 80.9552C150.281 81.2366 151.057 81.3773 152.051 81.3773ZM151.483 72.889C152.185 72.889 152.713 72.6623 153.068 72.209C153.432 71.7478 153.612 71.1381 153.612 70.38C153.612 69.614 153.432 69.0043 153.068 68.551C152.713 68.0978 152.185 67.871 151.483 67.871C150.773 67.871 150.238 68.0978 149.874 68.551C149.512 69.0043 149.33 69.614 149.33 70.38C149.33 71.1381 149.512 71.7478 149.874 72.209C150.238 72.6623 150.773 72.889 151.483 72.889ZM160.047 83.3469L162.673 76.8986L157.752 65.9483H161.017L164.045 73.4986L167.121 65.9483H170.386L162.981 83.3469H160.047Z" fill="white"/>
<mask id="mask0_35_453" style="mask-type:luminance" maskUnits="userSpaceOnUse" x="0" y="4" width="73" height="74">
<path d="M72.453 4.39661H0V77.6725H72.453V4.39661Z" fill="white"/>
</mask>
<g mask="url(#mask0_35_453)">
<path d="M66.9906 4.39661H57.2144C54.1976 4.39661 51.7521 6.75738 51.7521 9.6697V19.1076C51.7521 22.02 54.1976 24.381 57.2144 24.381H66.9906C70.0075 24.381 72.453 22.02 72.453 19.1076V9.6697C72.453 6.75738 70.0075 4.39661 66.9906 4.39661Z" fill="white"/>
<path d="M66.9906 31.0424H57.2144C54.1976 31.0424 51.7521 33.4032 51.7521 36.3154V45.7534C51.7521 48.6658 54.1976 51.0267 57.2144 51.0267H66.9906C70.0075 51.0267 72.453 48.6658 72.453 45.7534V36.3154C72.453 33.4032 70.0075 31.0424 66.9906 31.0424Z" fill="white"/>
<path d="M57.2144 58.1045H66.9906C69.2436 58.1045 71.1592 59.956 71.1592 62.3483V72.1796C71.1592 74.5719 69.2436 76.4235 66.9906 76.4235H57.2144C54.9615 76.4235 53.046 74.5719 53.046 72.1796V62.3483C53.046 59.9559 54.9615 58.1045 57.2144 58.1045Z" stroke="white" stroke-width="3"/>
<path fill-rule="evenodd" clip-rule="evenodd" d="M5.52285 4.39661H15.4078C18.4581 4.39661 20.9309 6.7836 20.9309 9.72829V10.9102L26.0773 13.7787C26.6524 14.0992 26.6524 14.9004 26.0773 15.2209L20.9309 18.0894V19.2712C20.9309 22.2158 18.4581 24.603 15.4078 24.603H5.52285C2.47273 24.603 0 22.2158 0 19.2712V9.72829C0 6.7836 2.47273 4.39661 5.52285 4.39661Z" fill="white"/>
<path fill-rule="evenodd" clip-rule="evenodd" d="M31.2839 57.244H41.169C44.2193 57.244 46.692 59.6311 46.692 62.5757V63.7577L51.8384 66.6261C52.4134 66.9466 52.4134 67.7478 51.8384 68.0683L46.692 70.9368V72.1186C46.692 75.0632 44.2193 77.4504 41.169 77.4504H31.2839C28.2338 77.4504 25.761 75.0632 25.761 72.1186V62.5757C25.761 59.6311 28.2338 57.244 31.2839 57.244Z" fill="white"/>
<path fill-rule="evenodd" clip-rule="evenodd" d="M5.52285 57.244H15.4078C18.4581 57.244 20.9309 59.6311 20.9309 62.5757V63.7577L26.0773 66.6261C26.6524 66.9466 26.6524 67.7478 26.0773 68.0683L20.9309 70.9368V72.1186C20.9309 75.0632 18.4581 77.4504 15.4078 77.4504H5.52285C2.47273 77.4504 0 75.0632 0 72.1186V62.5757C0 59.6311 2.47273 57.244 5.52285 57.244Z" fill="white"/>
<path fill-rule="evenodd" clip-rule="evenodd" d="M31.2839 30.8203H41.169C44.2193 30.8203 46.692 33.2073 46.692 36.152V37.3339L51.8384 40.2024C52.4134 40.5229 52.4134 41.3241 51.8384 41.6446L46.692 44.5131V45.6949C46.692 48.6395 44.2193 51.0267 41.169 51.0267H31.2839C28.2338 51.0267 25.761 48.6395 25.761 45.6949V36.152C25.761 33.2073 28.2338 30.8203 31.2839 30.8203Z" fill="white"/>
<path fill-rule="evenodd" clip-rule="evenodd" d="M5.52285 30.8203H15.4078C18.4581 30.8203 20.9309 33.2073 20.9309 36.152V37.3339L26.0773 40.2024C26.6524 40.5229 26.6524 41.3241 26.0773 41.6446L20.9309 44.5131V45.6949C20.9309 48.6395 18.4581 51.0267 15.4078 51.0267H5.52285C2.47273 51.0267 0 48.6395 0 45.6949V36.152C0 33.2073 2.47273 30.8203 5.52285 30.8203Z" fill="white"/>
<path fill-rule="evenodd" clip-rule="evenodd" d="M31.2839 4.39661H41.169C44.2193 4.39661 46.692 6.7836 46.692 9.72829V10.9102L51.8384 13.7787C52.4134 14.0992 52.4134 14.9004 51.8384 15.2209L46.692 18.0894V19.2712C46.692 22.2158 44.2193 24.603 41.169 24.603H31.2839C28.2338 24.603 25.761 22.2158 25.761 19.2712V9.72829C25.761 6.7836 28.2338 4.39661 31.2839 4.39661Z" fill="white"/>
</g>
</svg>
