<svg width="80" height="80" viewBox="0 0 80 80" fill="none" xmlns="http://www.w3.org/2000/svg">
<rect x="2.5" y="2.5" width="75" height="75" rx="2.5" stroke="url(#paint0_linear_117_584)" stroke-width="5"/>
<path d="M52.8191 28.7619C52.8191 38.1314 42.4084 37.4952 42.4084 43.9729V44.0079C42.4084 44.7552 41.8027 45.3609 41.0554 45.3609H35.3752C34.6279 45.3609 34.0222 44.7552 34.0222 44.0079V43.6258C34.0222 33.6201 43.1604 34.2563 43.1604 29.5715C43.1604 27.5473 41.6567 26.3327 39.1697 26.3327C37.1465 26.3327 35.079 27.2174 33.1995 29.0255C32.7178 29.4888 31.9647 29.5181 31.4383 29.1063L27.7027 26.1845C27.0731 25.6921 27.0001 24.7589 27.5567 24.1852C30.6754 20.9701 34.7281 19.0453 40.0951 19.0453C48.597 19.0454 52.8191 23.6145 52.8191 28.7619ZM43.5651 55.8872C43.5651 58.779 41.2517 61.1503 38.3021 61.1503C35.4102 61.1503 33.039 58.779 33.039 55.8872C33.039 52.9954 35.4102 50.6241 38.3021 50.6241C41.2518 50.6241 43.5651 52.9954 43.5651 55.8872Z" fill="url(#paint1_linear_117_584)"/>
<defs>
<linearGradient id="paint0_linear_117_584" x1="64.0833" y1="7.92969" x2="-11.1163" y2="15.1846" gradientUnits="userSpaceOnUse">
<stop stop-color="#751AE5"/>
<stop offset="0.489848" stop-color="#9E6BF5"/>
<stop offset="1" stop-color="#0D37FC"/>
</linearGradient>
<linearGradient id="paint1_linear_117_584" x1="47.7182" y1="23.2188" x2="23.4779" y2="24.6428" gradientUnits="userSpaceOnUse">
<stop stop-color="#751AE5"/>
<stop offset="0.489848" stop-color="#9E6BF5"/>
<stop offset="1" stop-color="#0D37FC"/>
</linearGradient>
</defs>
</svg>
