<svg width="30" height="30" viewBox="0 0 30 30" fill="none" xmlns="http://www.w3.org/2000/svg">
<rect x="1" y="1" width="28" height="28" rx="4" stroke="white" stroke-width="2"/>
<path d="M21.2493 9.5214C21.2493 14.0891 16.1741 13.7789 16.1741 16.9368V16.9538C16.1741 17.3182 15.8788 17.6134 15.5145 17.6134H12.7454C12.3811 17.6134 12.0858 17.3182 12.0858 16.9538V16.7676C12.0858 11.8898 16.5407 12.2 16.5407 9.91612C16.5407 8.92929 15.8076 8.33718 14.5952 8.33718C13.6089 8.33718 12.601 8.76847 11.6848 9.64993C11.4499 9.8758 11.0828 9.89007 10.8262 9.68933L9.00508 8.26492C8.69816 8.02488 8.66256 7.56998 8.93388 7.29028C10.4543 5.72291 12.43 4.78458 15.0464 4.78458C19.191 4.78463 21.2493 7.01205 21.2493 9.5214ZM16.738 22.745C16.738 24.1548 15.6102 25.3108 14.1723 25.3108C12.7625 25.3108 11.6065 24.1548 11.6065 22.745C11.6065 21.3353 12.7625 20.1793 14.1723 20.1793C15.6102 20.1793 16.738 21.3353 16.738 22.745Z" fill="white"/>
<rect x="2" y="2" width="26" height="26" stroke="white"/>
</svg>
