<svg width="30" height="30" viewBox="0 0 30 30" fill="none" xmlns="http://www.w3.org/2000/svg">
<rect x="1" y="1" width="28" height="28" rx="4" stroke="url(#paint0_linear_167_590)" stroke-width="2"/>
<path d="M21.2493 9.52143C21.2493 14.0891 16.1741 13.7789 16.1741 16.9368V16.9539C16.1741 17.3182 15.8788 17.6135 15.5145 17.6135H12.7454C12.3811 17.6135 12.0858 17.3182 12.0858 16.9539V16.7676C12.0858 11.8898 16.5407 12.2 16.5407 9.91615C16.5407 8.92932 15.8076 8.33721 14.5952 8.33721C13.6089 8.33721 12.601 8.7685 11.6848 9.64996C11.4499 9.87583 11.0828 9.8901 10.8262 9.68937L9.00508 8.26495C8.69816 8.02491 8.66256 7.57001 8.93388 7.29031C10.4543 5.72294 12.43 4.78461 15.0464 4.78461C19.191 4.78466 21.2493 7.01208 21.2493 9.52143ZM16.738 22.745C16.738 24.1548 15.6102 25.3108 14.1723 25.3108C12.7625 25.3108 11.6065 24.1548 11.6065 22.745C11.6065 21.3353 12.7625 20.1793 14.1723 20.1793C15.6102 20.1793 16.738 21.3353 16.738 22.745Z" fill="url(#paint1_linear_167_590)"/>
<defs>
<linearGradient id="paint0_linear_167_590" x1="24.0312" y1="2.97363" x2="-4.16861" y2="5.69424" gradientUnits="userSpaceOnUse">
<stop stop-color="#751AE5"/>
<stop offset="0.489848" stop-color="#9E6BF5"/>
<stop offset="1" stop-color="#0D37FC"/>
</linearGradient>
<linearGradient id="paint1_linear_167_590" x1="18.7626" y1="6.81919" x2="6.94551" y2="7.51338" gradientUnits="userSpaceOnUse">
<stop stop-color="#751AE5"/>
<stop offset="0.489848" stop-color="#9E6BF5"/>
<stop offset="1" stop-color="#0D37FC"/>
</linearGradient>
</defs>
</svg>
